<svg xmlns="http://www.w3.org/2000/svg" xmlns:xlink="http://www.w3.org/1999/xlink" width="150" zoomAndPan="magnify" viewBox="0 0 112.5 30.000001" height="40" preserveAspectRatio="xMidYMid meet" version="1.0"><defs><g/><clipPath id="e0f482afea"><path d="M 4 7.257812 L 20 7.257812 L 20 21 L 4 21 Z M 4 7.257812 " clip-rule="nonzero"/></clipPath></defs><g fill="#ffffff" fill-opacity="1"><g transform="translate(22.637224, 17.43872)"><g><path d="M 4.375 0 L 1.796875 0 L 1.796875 -1.75 L 4.28125 -1.75 C 4.925781 -1.75 5.460938 -1.863281 5.890625 -2.09375 C 6.328125 -2.332031 6.65625 -2.691406 6.875 -3.171875 C 7.09375 -3.648438 7.203125 -4.253906 7.203125 -4.984375 C 7.203125 -5.722656 7.09375 -6.328125 6.875 -6.796875 C 6.65625 -7.273438 6.328125 -7.628906 5.890625 -7.859375 C 5.460938 -8.097656 4.925781 -8.21875 4.28125 -8.21875 L 1.75 -8.21875 L 1.75 -9.96875 L 4.40625 -9.96875 C 5.414062 -9.96875 6.28125 -9.765625 7 -9.359375 C 7.71875 -8.960938 8.269531 -8.390625 8.65625 -7.640625 C 9.050781 -6.898438 9.25 -6.015625 9.25 -4.984375 C 9.25 -3.953125 9.050781 -3.0625 8.65625 -2.3125 C 8.269531 -1.570312 7.710938 -1 6.984375 -0.59375 C 6.253906 -0.195312 5.382812 0 4.375 0 Z M 2.90625 -9.96875 L 2.90625 0 L 0.859375 0 L 0.859375 -9.96875 Z M 2.90625 -9.96875 "/></g></g></g><g fill="#ffffff" fill-opacity="1"><g transform="translate(32.463741, 17.43872)"><g><path d="M 4.15625 0.140625 C 3.40625 0.140625 2.753906 -0.015625 2.203125 -0.328125 C 1.660156 -0.648438 1.242188 -1.097656 0.953125 -1.671875 C 0.660156 -2.242188 0.515625 -2.910156 0.515625 -3.671875 C 0.515625 -4.429688 0.660156 -5.097656 0.953125 -5.671875 C 1.242188 -6.242188 1.660156 -6.691406 2.203125 -7.015625 C 2.753906 -7.335938 3.40625 -7.5 4.15625 -7.5 C 4.894531 -7.5 5.535156 -7.335938 6.078125 -7.015625 C 6.628906 -6.691406 7.050781 -6.242188 7.34375 -5.671875 C 7.644531 -5.097656 7.796875 -4.429688 7.796875 -3.671875 C 7.796875 -2.910156 7.644531 -2.242188 7.34375 -1.671875 C 7.050781 -1.097656 6.628906 -0.648438 6.078125 -0.328125 C 5.535156 -0.015625 4.894531 0.140625 4.15625 0.140625 Z M 4.15625 -1.4375 C 4.5 -1.4375 4.789062 -1.53125 5.03125 -1.71875 C 5.269531 -1.90625 5.453125 -2.164062 5.578125 -2.5 C 5.703125 -2.84375 5.765625 -3.234375 5.765625 -3.671875 C 5.765625 -4.109375 5.703125 -4.492188 5.578125 -4.828125 C 5.453125 -5.171875 5.269531 -5.4375 5.03125 -5.625 C 4.789062 -5.820312 4.5 -5.921875 4.15625 -5.921875 C 3.8125 -5.921875 3.515625 -5.820312 3.265625 -5.625 C 3.023438 -5.4375 2.84375 -5.171875 2.71875 -4.828125 C 2.601562 -4.492188 2.546875 -4.109375 2.546875 -3.671875 C 2.546875 -3.234375 2.601562 -2.84375 2.71875 -2.5 C 2.84375 -2.164062 3.023438 -1.90625 3.265625 -1.71875 C 3.503906 -1.53125 3.800781 -1.4375 4.15625 -1.4375 Z M 4.15625 -1.4375 "/></g></g></g><g fill="#ffffff" fill-opacity="1"><g transform="translate(40.765108, 17.43872)"><g><path d="M 4.140625 2.9375 C 3.515625 2.9375 2.96875 2.851562 2.5 2.6875 C 2.039062 2.53125 1.664062 2.304688 1.375 2.015625 C 1.09375 1.722656 0.898438 1.382812 0.796875 1 L 2.5625 0.640625 C 2.625 0.785156 2.71875 0.921875 2.84375 1.046875 C 2.976562 1.179688 3.148438 1.285156 3.359375 1.359375 C 3.578125 1.441406 3.835938 1.484375 4.140625 1.484375 C 4.640625 1.484375 5.03125 1.363281 5.3125 1.125 C 5.601562 0.882812 5.75 0.515625 5.75 0.015625 L 5.75 -1.296875 L 5.640625 -1.296875 C 5.535156 -1.078125 5.390625 -0.875 5.203125 -0.6875 C 5.023438 -0.507812 4.800781 -0.363281 4.53125 -0.25 C 4.257812 -0.132812 3.929688 -0.078125 3.546875 -0.078125 C 2.984375 -0.078125 2.46875 -0.210938 2 -0.484375 C 1.539062 -0.765625 1.175781 -1.171875 0.90625 -1.703125 C 0.644531 -2.242188 0.515625 -2.914062 0.515625 -3.71875 C 0.515625 -4.53125 0.648438 -5.21875 0.921875 -5.78125 C 1.191406 -6.34375 1.554688 -6.769531 2.015625 -7.0625 C 2.472656 -7.351562 2.984375 -7.5 3.546875 -7.5 C 3.941406 -7.5 4.28125 -7.429688 4.5625 -7.296875 C 4.84375 -7.171875 5.078125 -7.003906 5.265625 -6.796875 C 5.453125 -6.597656 5.597656 -6.394531 5.703125 -6.1875 L 5.765625 -6.1875 L 5.765625 -7.390625 L 7.734375 -7.390625 L 7.734375 -0.109375 C 7.734375 0.578125 7.578125 1.144531 7.265625 1.59375 C 6.960938 2.050781 6.539062 2.390625 6 2.609375 C 5.46875 2.828125 4.847656 2.9375 4.140625 2.9375 Z M 4.15625 -1.625 C 4.5 -1.625 4.789062 -1.707031 5.03125 -1.875 C 5.269531 -2.039062 5.453125 -2.28125 5.578125 -2.59375 C 5.710938 -2.914062 5.78125 -3.296875 5.78125 -3.734375 C 5.78125 -4.171875 5.710938 -4.550781 5.578125 -4.875 C 5.453125 -5.195312 5.269531 -5.445312 5.03125 -5.625 C 4.789062 -5.800781 4.5 -5.890625 4.15625 -5.890625 C 3.8125 -5.890625 3.519531 -5.796875 3.28125 -5.609375 C 3.039062 -5.429688 2.859375 -5.179688 2.734375 -4.859375 C 2.617188 -4.535156 2.5625 -4.160156 2.5625 -3.734375 C 2.5625 -3.296875 2.625 -2.914062 2.75 -2.59375 C 2.875 -2.28125 3.050781 -2.039062 3.28125 -1.875 C 3.519531 -1.707031 3.8125 -1.625 4.15625 -1.625 Z M 4.15625 -1.625 "/></g></g></g><g fill="#ffffff" fill-opacity="1"><g transform="translate(49.313977, 17.43872)"><g><path d="M 2.921875 0.140625 C 2.453125 0.140625 2.03125 0.0546875 1.65625 -0.109375 C 1.28125 -0.273438 0.984375 -0.519531 0.765625 -0.84375 C 0.554688 -1.175781 0.453125 -1.582031 0.453125 -2.0625 C 0.453125 -2.476562 0.523438 -2.820312 0.671875 -3.09375 C 0.828125 -3.375 1.035156 -3.597656 1.296875 -3.765625 C 1.554688 -3.941406 1.851562 -4.070312 2.1875 -4.15625 C 2.53125 -4.238281 2.890625 -4.300781 3.265625 -4.34375 C 3.691406 -4.382812 4.035156 -4.421875 4.296875 -4.453125 C 4.566406 -4.492188 4.757812 -4.554688 4.875 -4.640625 C 5 -4.722656 5.0625 -4.84375 5.0625 -5 L 5.0625 -5.03125 C 5.0625 -5.238281 5.015625 -5.414062 4.921875 -5.5625 C 4.828125 -5.707031 4.691406 -5.816406 4.515625 -5.890625 C 4.347656 -5.972656 4.140625 -6.015625 3.890625 -6.015625 C 3.628906 -6.015625 3.40625 -5.972656 3.21875 -5.890625 C 3.03125 -5.816406 2.875 -5.710938 2.75 -5.578125 C 2.632812 -5.453125 2.554688 -5.304688 2.515625 -5.140625 L 0.671875 -5.375 C 0.773438 -5.820312 0.96875 -6.203125 1.25 -6.515625 C 1.539062 -6.828125 1.910156 -7.066406 2.359375 -7.234375 C 2.816406 -7.410156 3.332031 -7.5 3.90625 -7.5 C 4.320312 -7.5 4.71875 -7.445312 5.09375 -7.34375 C 5.476562 -7.25 5.816406 -7.097656 6.109375 -6.890625 C 6.398438 -6.679688 6.628906 -6.421875 6.796875 -6.109375 C 6.960938 -5.796875 7.046875 -5.421875 7.046875 -4.984375 L 7.046875 0 L 5.140625 0 L 5.140625 -1.03125 L 5.078125 -1.03125 C 4.960938 -0.800781 4.804688 -0.597656 4.609375 -0.421875 C 4.410156 -0.242188 4.171875 -0.101562 3.890625 0 C 3.617188 0.09375 3.296875 0.140625 2.921875 0.140625 Z M 3.484375 -1.265625 C 3.804688 -1.265625 4.082031 -1.320312 4.3125 -1.4375 C 4.550781 -1.5625 4.738281 -1.726562 4.875 -1.9375 C 5.007812 -2.15625 5.078125 -2.394531 5.078125 -2.65625 L 5.078125 -3.4375 C 5.015625 -3.40625 4.925781 -3.367188 4.8125 -3.328125 C 4.695312 -3.296875 4.566406 -3.265625 4.421875 -3.234375 C 4.285156 -3.210938 4.144531 -3.1875 4 -3.15625 C 3.851562 -3.132812 3.71875 -3.117188 3.59375 -3.109375 C 3.351562 -3.066406 3.140625 -3.003906 2.953125 -2.921875 C 2.765625 -2.847656 2.617188 -2.742188 2.515625 -2.609375 C 2.421875 -2.484375 2.375 -2.320312 2.375 -2.125 C 2.375 -1.9375 2.421875 -1.773438 2.515625 -1.640625 C 2.609375 -1.515625 2.738281 -1.421875 2.90625 -1.359375 C 3.070312 -1.296875 3.265625 -1.265625 3.484375 -1.265625 Z M 3.484375 -1.265625 "/></g></g></g><g fill="#ffffff" fill-opacity="1"><g transform="translate(57.180543, 17.43872)"><g><path d="M 2.8125 -4.234375 L 2.8125 0 L 0.828125 0 L 0.828125 -7.390625 L 2.71875 -7.390625 L 2.75 -5.53125 L 2.578125 -5.53125 C 2.785156 -6.15625 3.085938 -6.640625 3.484375 -6.984375 C 3.890625 -7.328125 4.410156 -7.5 5.046875 -7.5 C 5.554688 -7.5 6.003906 -7.382812 6.390625 -7.15625 C 6.773438 -6.9375 7.070312 -6.613281 7.28125 -6.1875 C 7.488281 -5.769531 7.59375 -5.269531 7.59375 -4.6875 L 7.59375 0 L 5.59375 0 L 5.59375 -4.328125 C 5.59375 -4.796875 5.472656 -5.160156 5.234375 -5.421875 C 5.003906 -5.679688 4.675781 -5.8125 4.25 -5.8125 C 3.96875 -5.8125 3.71875 -5.75 3.5 -5.625 C 3.289062 -5.507812 3.125 -5.332031 3 -5.09375 C 2.875 -4.863281 2.8125 -4.578125 2.8125 -4.234375 Z M 2.8125 -4.234375 "/></g></g></g><g fill="#ffffff" fill-opacity="1"><g transform="translate(65.595627, 17.43872)"><g><path d="M 3.78125 0.15625 C 3.175781 0.15625 2.640625 0.0664062 2.171875 -0.109375 C 1.710938 -0.285156 1.335938 -0.539062 1.046875 -0.875 C 0.753906 -1.207031 0.566406 -1.609375 0.484375 -2.078125 L 2.375 -2.328125 C 2.457031 -1.992188 2.617188 -1.738281 2.859375 -1.5625 C 3.097656 -1.394531 3.421875 -1.3125 3.828125 -1.3125 C 4.203125 -1.3125 4.5 -1.378906 4.71875 -1.515625 C 4.9375 -1.660156 5.046875 -1.847656 5.046875 -2.078125 C 5.046875 -2.265625 4.960938 -2.421875 4.796875 -2.546875 C 4.640625 -2.671875 4.40625 -2.765625 4.09375 -2.828125 L 2.8125 -3.078125 C 2.101562 -3.234375 1.566406 -3.484375 1.203125 -3.828125 C 0.847656 -4.179688 0.671875 -4.640625 0.671875 -5.203125 C 0.671875 -5.671875 0.796875 -6.078125 1.046875 -6.421875 C 1.304688 -6.765625 1.671875 -7.03125 2.140625 -7.21875 C 2.609375 -7.40625 3.15625 -7.5 3.78125 -7.5 C 4.375 -7.5 4.890625 -7.410156 5.328125 -7.234375 C 5.765625 -7.066406 6.113281 -6.828125 6.375 -6.515625 C 6.644531 -6.203125 6.816406 -5.832031 6.890625 -5.40625 L 5.109375 -5.171875 C 5.046875 -5.429688 4.90625 -5.644531 4.6875 -5.8125 C 4.46875 -5.976562 4.179688 -6.0625 3.828125 -6.0625 C 3.484375 -6.0625 3.203125 -5.988281 2.984375 -5.84375 C 2.773438 -5.707031 2.671875 -5.53125 2.671875 -5.3125 C 2.671875 -5.125 2.742188 -4.960938 2.890625 -4.828125 C 3.035156 -4.703125 3.273438 -4.609375 3.609375 -4.546875 L 4.953125 -4.28125 C 5.671875 -4.132812 6.203125 -3.894531 6.546875 -3.5625 C 6.898438 -3.238281 7.078125 -2.8125 7.078125 -2.28125 C 7.078125 -1.789062 6.9375 -1.363281 6.65625 -1 C 6.382812 -0.632812 6 -0.347656 5.5 -0.140625 C 5 0.0546875 4.425781 0.15625 3.78125 0.15625 Z M 3.78125 0.15625 "/></g></g></g><g fill="#ffffff" fill-opacity="1"><g transform="translate(73.147797, 17.43872)"><g><path d="M 2.375 0 L 0.1875 -7.390625 L 2.28125 -7.390625 L 2.921875 -4.6875 C 3.035156 -4.1875 3.15625 -3.648438 3.28125 -3.078125 C 3.414062 -2.503906 3.535156 -1.882812 3.640625 -1.21875 L 3.40625 -1.21875 C 3.53125 -1.875 3.660156 -2.488281 3.796875 -3.0625 C 3.929688 -3.644531 4.0625 -4.1875 4.1875 -4.6875 L 4.859375 -7.390625 L 6.703125 -7.390625 L 7.359375 -4.6875 C 7.484375 -4.1875 7.613281 -3.648438 7.75 -3.078125 C 7.882812 -2.503906 8.007812 -1.882812 8.125 -1.21875 L 7.890625 -1.21875 C 8.003906 -1.875 8.117188 -2.488281 8.234375 -3.0625 C 8.359375 -3.632812 8.476562 -4.175781 8.59375 -4.6875 L 9.25 -7.390625 L 11.375 -7.390625 L 9.15625 0 L 7.125 0 L 6.296875 -2.875 C 6.210938 -3.15625 6.128906 -3.460938 6.046875 -3.796875 C 5.972656 -4.128906 5.894531 -4.46875 5.8125 -4.8125 C 5.738281 -5.164062 5.664062 -5.5 5.59375 -5.8125 L 5.953125 -5.8125 C 5.867188 -5.5 5.789062 -5.164062 5.71875 -4.8125 C 5.644531 -4.46875 5.566406 -4.128906 5.484375 -3.796875 C 5.410156 -3.460938 5.332031 -3.15625 5.25 -2.875 L 4.421875 0 Z M 2.375 0 "/></g></g></g><g fill="#ffffff" fill-opacity="1"><g transform="translate(84.693453, 17.43872)"><g><path d="M 4.171875 0.140625 C 3.410156 0.140625 2.753906 -0.015625 2.203125 -0.328125 C 1.660156 -0.640625 1.242188 -1.078125 0.953125 -1.640625 C 0.660156 -2.210938 0.515625 -2.882812 0.515625 -3.65625 C 0.515625 -4.414062 0.660156 -5.082031 0.953125 -5.65625 C 1.242188 -6.238281 1.65625 -6.691406 2.1875 -7.015625 C 2.726562 -7.335938 3.359375 -7.5 4.078125 -7.5 C 4.566406 -7.5 5.023438 -7.414062 5.453125 -7.25 C 5.878906 -7.09375 6.25 -6.851562 6.5625 -6.53125 C 6.882812 -6.21875 7.132812 -5.828125 7.3125 -5.359375 C 7.488281 -4.890625 7.578125 -4.347656 7.578125 -3.734375 L 7.578125 -3.171875 L 1.3125 -3.171875 L 1.3125 -4.4375 L 6.609375 -4.4375 L 5.671875 -4.109375 C 5.671875 -4.492188 5.609375 -4.828125 5.484375 -5.109375 C 5.367188 -5.390625 5.191406 -5.601562 4.953125 -5.75 C 4.722656 -5.90625 4.4375 -5.984375 4.09375 -5.984375 C 3.75 -5.984375 3.457031 -5.90625 3.21875 -5.75 C 2.976562 -5.59375 2.789062 -5.378906 2.65625 -5.109375 C 2.53125 -4.835938 2.46875 -4.523438 2.46875 -4.171875 L 2.46875 -3.296875 C 2.46875 -2.878906 2.539062 -2.523438 2.6875 -2.234375 C 2.832031 -1.941406 3.035156 -1.722656 3.296875 -1.578125 C 3.554688 -1.429688 3.859375 -1.359375 4.203125 -1.359375 C 4.441406 -1.359375 4.65625 -1.390625 4.84375 -1.453125 C 5.039062 -1.523438 5.207031 -1.625 5.34375 -1.75 C 5.476562 -1.882812 5.582031 -2.046875 5.65625 -2.234375 L 7.46875 -1.984375 C 7.351562 -1.554688 7.144531 -1.179688 6.84375 -0.859375 C 6.539062 -0.535156 6.160156 -0.285156 5.703125 -0.109375 C 5.253906 0.0546875 4.742188 0.140625 4.171875 0.140625 Z M 4.171875 0.140625 "/></g></g></g><g fill="#ffffff" fill-opacity="1"><g transform="translate(92.747318, 17.43872)"><g><path d="M 0.828125 0 L 0.828125 -7.390625 L 2.75 -7.390625 L 2.75 -6.109375 L 2.828125 -6.109375 C 2.960938 -6.554688 3.1875 -6.894531 3.5 -7.125 C 3.8125 -7.351562 4.179688 -7.46875 4.609375 -7.46875 C 4.710938 -7.46875 4.820312 -7.460938 4.9375 -7.453125 C 5.050781 -7.453125 5.148438 -7.441406 5.234375 -7.421875 L 5.234375 -5.65625 C 5.148438 -5.675781 5.023438 -5.691406 4.859375 -5.703125 C 4.691406 -5.722656 4.53125 -5.734375 4.375 -5.734375 C 4.082031 -5.734375 3.816406 -5.671875 3.578125 -5.546875 C 3.335938 -5.421875 3.148438 -5.238281 3.015625 -5 C 2.878906 -4.757812 2.8125 -4.476562 2.8125 -4.15625 L 2.8125 0 Z M 0.828125 0 "/></g></g></g><g clip-path="url(#e0f482afea)"><path fill="#ffffff" d="M 5.984375 7.046875 C 4.960938 7.046875 4.449219 7.558594 4.449219 8.582031 L 4.449219 15.957031 C 4.449219 16.984375 4.960938 17.496094 5.984375 17.496094 L 9.058594 17.496094 L 11.210938 20.261719 C 11.617188 20.773438 12.027344 20.773438 12.4375 20.261719 L 14.28125 17.496094 L 18.277344 17.496094 C 19.300781 17.496094 19.8125 16.984375 19.8125 15.957031 L 19.8125 8.582031 C 19.8125 7.558594 19.300781 7.046875 18.277344 7.046875 Z M 6.601562 11.65625 L 6.601562 13.191406 C 6.601562 13.300781 6.636719 13.390625 6.710938 13.464844 C 6.789062 13.539062 6.878906 13.578125 6.984375 13.578125 C 7.089844 13.578125 7.179688 13.539062 7.253906 13.464844 C 7.332031 13.390625 7.367188 13.300781 7.367188 13.191406 L 7.367188 11.65625 C 7.367188 11.550781 7.332031 11.460938 7.253906 11.386719 C 7.179688 11.308594 7.089844 11.273438 6.984375 11.273438 C 6.878906 11.273438 6.789062 11.308594 6.710938 11.386719 C 6.636719 11.460938 6.601562 11.550781 6.601562 11.65625 Z M 8.289062 10.425781 L 8.289062 14.421875 C 8.289062 14.527344 8.328125 14.617188 8.402344 14.695312 C 8.476562 14.769531 8.566406 14.804688 8.675781 14.804688 C 8.78125 14.804688 8.871094 14.769531 8.945312 14.695312 C 9.019531 14.617188 9.058594 14.527344 9.058594 14.421875 L 9.058594 10.425781 C 9.058594 10.320312 9.019531 10.230469 8.945312 10.15625 C 8.871094 10.082031 8.78125 10.042969 8.675781 10.042969 C 8.566406 10.042969 8.476562 10.082031 8.402344 10.15625 C 8.328125 10.230469 8.289062 10.320312 8.289062 10.425781 Z M 9.980469 9.199219 L 9.980469 15.652344 C 9.980469 15.757812 10.015625 15.847656 10.09375 15.921875 C 10.167969 15.996094 10.257812 16.035156 10.363281 16.035156 C 10.46875 16.035156 10.5625 15.996094 10.636719 15.921875 C 10.710938 15.847656 10.75 15.757812 10.75 15.652344 L 10.75 9.199219 C 10.75 9.09375 10.710938 9 10.636719 8.925781 C 10.5625 8.851562 10.46875 8.8125 10.363281 8.8125 C 10.257812 8.8125 10.167969 8.851562 10.09375 8.925781 C 10.015625 9 9.980469 9.09375 9.980469 9.199219 Z M 11.667969 10.121094 L 11.667969 14.730469 C 11.667969 14.835938 11.707031 14.925781 11.78125 15 C 11.855469 15.074219 11.949219 15.113281 12.054688 15.113281 C 12.160156 15.113281 12.25 15.074219 12.324219 15 C 12.402344 14.925781 12.4375 14.835938 12.4375 14.730469 L 12.4375 10.121094 C 12.4375 10.015625 12.402344 9.921875 12.324219 9.847656 C 12.25 9.773438 12.160156 9.734375 12.054688 9.734375 C 11.949219 9.734375 11.855469 9.773438 11.78125 9.847656 C 11.707031 9.921875 11.667969 10.015625 11.667969 10.121094 Z M 13.359375 9.199219 L 13.359375 15.652344 C 13.359375 15.757812 13.398438 15.847656 13.472656 15.921875 C 13.546875 15.996094 13.636719 16.035156 13.742188 16.035156 C 13.851562 16.035156 13.941406 15.996094 14.015625 15.921875 C 14.089844 15.847656 14.128906 15.757812 14.128906 15.652344 L 14.128906 9.199219 C 14.128906 9.09375 14.089844 9 14.015625 8.925781 C 13.941406 8.851562 13.851562 8.8125 13.742188 8.8125 C 13.636719 8.8125 13.546875 8.851562 13.472656 8.925781 C 13.398438 9 13.359375 9.09375 13.359375 9.199219 Z M 15.050781 10.734375 L 15.050781 14.113281 C 15.050781 14.222656 15.085938 14.3125 15.164062 14.386719 C 15.238281 14.460938 15.328125 14.5 15.433594 14.5 C 15.539062 14.5 15.628906 14.460938 15.707031 14.386719 C 15.78125 14.3125 15.816406 14.222656 15.816406 14.113281 L 15.816406 10.734375 C 15.816406 10.628906 15.78125 10.539062 15.707031 10.464844 C 15.628906 10.386719 15.539062 10.351562 15.433594 10.351562 C 15.328125 10.351562 15.238281 10.386719 15.164062 10.464844 C 15.085938 10.539062 15.050781 10.628906 15.050781 10.734375 Z M 16.738281 11.964844 L 16.738281 12.886719 C 16.738281 12.992188 16.777344 13.082031 16.851562 13.15625 C 16.925781 13.230469 17.019531 13.269531 17.125 13.269531 C 17.230469 13.269531 17.320312 13.230469 17.394531 13.15625 C 17.46875 13.082031 17.507812 12.992188 17.507812 12.886719 L 17.507812 11.964844 C 17.507812 11.859375 17.46875 11.765625 17.394531 11.691406 C 17.320312 11.617188 17.230469 11.578125 17.125 11.578125 C 17.019531 11.578125 16.925781 11.617188 16.851562 11.691406 C 16.777344 11.765625 16.738281 11.859375 16.738281 11.964844 Z M 16.738281 11.964844 " fill-opacity="1" fill-rule="evenodd"/></g></svg>