<?xml version="1.0" encoding="UTF-8"?>
<svg id="Warstwa_1" data-name="Warstwa 1" xmlns="http://www.w3.org/2000/svg" version="1.1" viewBox="0 0 900 111.5">
  <defs>
    <style>
      .cls-1 {
        fill: none;
      }

      .cls-1, .cls-2 {
        stroke-width: 0px;
      }

      .cls-2 {
        fill: #1d1e20;
      }
    </style>
  </defs>
  <path class="cls-1" d="M153,24.9c-15,0-27.6,12.8-27.6,31s12.6,31,27.6,31,27.6-12.8,27.6-31-12.8-31-27.6-31Z"/>
  <path class="cls-1" d="M470.9,25.3h-18.2v25.8h18.2c7.9,0,13.7-5.5,13.7-12.9s-5.8-12.9-13.7-12.9Z"/>
  <path class="cls-1" d="M37.6,26.5h-11.7v58.6h11.7c14.9,0,27.8-12.6,27.8-29.3s-12.9-29.3-27.8-29.3Z"/>
  <path class="cls-1" d="M575.7,24.9c-15,0-27.6,12.8-27.6,31s12.6,31,27.6,31,27.6-12.8,27.6-31-12.8-31-27.6-31Z"/>
  <path class="cls-2" d="M37.6,2.7H0v106.3h37.5c29.9,0,53.6-23.2,53.6-53.1S68,2.7,37.6,2.7ZM37.6,85.1h-11.7V26.5h11.7c14.9,0,27.8,12.6,27.8,29.3s-12.9,29.3-27.8,29.3Z"/>
  <path class="cls-2" d="M153,.6c-29.6,0-53.4,24.7-53.4,55.3s23.8,55.3,53.4,55.3,53.4-24.7,53.4-55.3S182.4.6,153,.6ZM153,86.8c-15,0-27.6-12.8-27.6-31s12.6-31,27.6-31,27.6,12.8,27.6,31-12.8,31-27.6,31Z"/>
  <polygon class="cls-2" points="270 71.6 293.4 71.6 320.9 109 320.9 52.8 270 52.8 270 71.6"/>
  <path class="cls-2" d="M270,87.1c-15.2,0-27.8-12.9-27.8-31.3s12.6-31.3,27.5-31.3,20.8,8.7,23.1,14.4l26.6-1.2c-2.9-14-18.5-37.2-49.6-37.2s-53.3,24.7-53.3,55.3,23.8,55.3,52.1,55.3,18.8-3,24.9-7.1v-32.4c-2.1,6.2-9.3,15.5-23.4,15.5Z"/>
  <polygon class="cls-2" points="328.9 27.5 359.3 27.5 359.3 109 385.1 109 385.1 27.5 415.3 27.5 415.3 2.7 328.9 2.7 328.9 27.5"/>
  <path class="cls-2" d="M510.7,37.9c0-20.3-15.5-35.2-37.5-35.2h-45.9v106.3h25.8v-36.1h11.5l20.3,36.1h29.1l-24.3-40.7c12.9-5.9,20.8-17,20.8-30.4ZM470.9,51.1h-18.2v-25.8h18.2c7.9,0,13.7,5.5,13.7,12.9s-5.8,12.9-13.7,12.9Z"/>
  <path class="cls-2" d="M575.7.6c-29.6,0-53.4,24.7-53.4,55.3s23.8,55.3,53.4,55.3,53.4-24.7,53.4-55.3S605.1.6,575.7.6ZM575.7,86.8c-15,0-27.6-12.8-27.6-31s12.6-31,27.6-31,27.6,12.8,27.6,31-12.8,31-27.6,31Z"/>
  <polygon class="cls-2" points="711.2 67.4 668.1 2.7 644 2.7 644 109 669 109 669 44.3 712.1 109 736.3 109 736.3 2.7 711.2 2.7 711.2 67.4"/>
  <rect class="cls-2" x="756" y="2.7" width="25.8" height="106.3"/>
  <path class="cls-2" d="M873.7,69.8c-2.7,7.6-10.3,17-23.7,17s-27.5-12.8-27.5-31,12.6-31,27.5-31,21.1,9.6,23.2,17.2l26.4-1.2c-3.6-16.4-18.5-40.2-49.6-40.2s-53.3,24.7-53.3,55.3,23.8,55.3,53.3,55.3,46.8-24.4,50.1-40.1l-26.4-1.2Z"/>
</svg>